<svg width="58" height="37" viewBox="0 0 58 37" fill="none" xmlns="http://www.w3.org/2000/svg">
<rect width="58" height="37" rx="10" fill="white"/>
<g clip-path="url(#clip0_223_3865)">
<path d="M27.7348 19.3754V24.7454H26.0098V11.4646H30.4948C31.5873 11.4646 32.6223 11.8688 33.4273 12.6195C34.2323 13.3124 34.6348 14.3517 34.6348 15.4489C34.6348 16.546 34.2323 17.5276 33.4273 18.2782C32.6223 19.0289 31.6448 19.4331 30.4948 19.4331L27.7348 19.3754ZM27.7348 13.0814V17.7008H30.6098C31.2423 17.7008 31.8748 17.4698 32.2773 17.0079C33.1973 16.1418 33.1973 14.6982 32.3348 13.8321L32.2773 13.7743C31.8173 13.3124 31.2423 13.0237 30.6098 13.0814H27.7348Z" fill="#5F6368"/>
<path d="M38.6023 15.3911C39.8673 15.3911 40.8448 15.7376 41.5923 16.4305C42.3398 17.1234 42.6848 18.0473 42.6848 19.2021V24.7454H41.0748V23.4751H41.0173C40.3273 24.5145 39.3498 25.0342 38.1998 25.0342C37.2223 25.0342 36.3598 24.7454 35.6698 24.168C35.0373 23.5906 34.6348 22.7822 34.6348 21.916C34.6348 20.9922 34.9798 20.2415 35.6698 19.6641C36.3598 19.0867 37.3373 18.8557 38.4873 18.8557C39.5223 18.8557 40.3273 19.0289 40.9598 19.4331V19.0289C40.9598 18.4515 40.7298 17.8741 40.2698 17.5276C39.8098 17.1234 39.2348 16.8924 38.6023 16.8924C37.6248 16.8924 36.8773 17.2966 36.3598 18.105L34.8648 17.1811C35.7848 15.9685 36.9923 15.3911 38.6023 15.3911ZM36.4173 21.9738C36.4173 22.4357 36.6473 22.8399 36.9923 23.0709C37.3948 23.3596 37.8548 23.5328 38.3148 23.5328C39.0048 23.5328 39.6948 23.2441 40.2123 22.7244C40.7873 22.2048 41.0748 21.5696 41.0748 20.8767C40.5573 20.4725 39.8098 20.2415 38.8323 20.2415C38.1423 20.2415 37.5673 20.4147 37.1073 20.7612C36.6473 21.0499 36.4173 21.4541 36.4173 21.9738Z" fill="#5F6368"/>
<path d="M52.0002 15.6797L46.3077 28.7873H44.5827L46.7102 24.2256L42.9727 15.7374H44.8127L47.5152 22.2624H47.5727L50.2177 15.7374H52.0002V15.6797Z" fill="#5F6368"/>
<path d="M20.8923 18.2204C20.8923 17.7007 20.8348 17.1811 20.7773 16.6614H13.5898V19.6063H17.6723C17.4998 20.5301 16.9823 21.3963 16.1773 21.916V23.8215H18.6498C20.0873 22.4934 20.8923 20.5301 20.8923 18.2204Z" fill="#4285F4"/>
<path d="M13.5897 25.6692C15.6597 25.6692 17.3847 24.9763 18.6497 23.8214L16.1772 21.9159C15.4872 22.3779 14.6247 22.6666 13.5897 22.6666C11.6347 22.6666 9.90969 21.3385 9.33469 19.4907H6.80469V21.454C8.12719 24.0524 10.7147 25.6692 13.5897 25.6692Z" fill="#34A853"/>
<path d="M9.33473 19.4909C8.98973 18.567 8.98973 17.5276 9.33473 16.546V14.5828H6.80473C5.71223 16.7192 5.71223 19.2599 6.80473 21.4542L9.33473 19.4909Z" fill="#FBBC04"/>
<path d="M13.5898 13.4279C14.6823 13.4279 15.7173 13.832 16.5223 14.5827L18.7073 12.3885C17.3273 11.1181 15.4873 10.3675 13.6473 10.4252C10.7723 10.4252 8.1273 12.042 6.8623 14.6404L9.3923 16.6037C9.9098 14.7559 11.6348 13.4279 13.5898 13.4279Z" fill="#EA4335"/>
</g>
<defs>
<clipPath id="clip0_223_3865">
<rect width="46" height="22" fill="white" transform="translate(6 8)"/>
</clipPath>
</defs>
</svg>
