<svg width="63" height="37" viewBox="0 0 63 37" fill="none" xmlns="http://www.w3.org/2000/svg">
<rect width="63" height="37" rx="10" fill="white"/>
<path d="M5.65039 11.9501H10.6004C11.0504 11.9501 12.4004 11.8001 13.0004 13.9001C13.4504 15.2501 14.0504 17.3501 14.9504 20.5001H15.2504C16.1504 17.2001 16.9004 14.9501 17.2004 13.9001C17.8004 11.8001 19.3004 11.9501 19.9004 11.9501H24.5504V26.3501H19.7504V17.8001H19.4504L16.9004 26.3501H13.3004L10.7504 17.8001H10.3004V26.3501H5.65039M26.5004 11.9501H31.3004V20.5001H31.7504L34.9004 13.4501C35.5004 12.1001 36.8504 11.9501 36.8504 11.9501H41.3504V26.3501H36.5504V17.8001H36.2504L33.1004 24.8501C32.5004 26.2001 31.0004 26.3501 31.0004 26.3501H26.5004M47.8004 22.0001V26.3501H43.3004V18.8501H58.0004C57.4004 20.6501 55.3004 22.0001 52.9004 22.0001" fill="#0F754E"/>
<path d="M58.3 17.95C58.9 15.25 57.1 11.95 53.2 11.95H43C43.3 15.1 46 17.95 48.85 17.95" fill="url(#paint0_linear_223_3861)"/>
<defs>
<linearGradient id="paint0_linear_223_3861" x1="56.5" y1="9.99995" x2="44.5" y2="9.99995" gradientUnits="userSpaceOnUse">
<stop stop-color="#1F5CD7"/>
<stop offset="1" stop-color="#02AEFF"/>
</linearGradient>
</defs>
</svg>
