<svg width="37" height="37" viewBox="0 0 37 37" fill="none" xmlns="http://www.w3.org/2000/svg">
<rect width="37" height="37" rx="10" fill="white"/>
<g clip-path="url(#clip0_223_3830)">
<path d="M18.506 7.17432C13.7769 7.17432 12.3938 7.1792 12.125 7.2015C11.1545 7.28217 10.5506 7.43498 9.89263 7.76256C9.3856 8.01434 8.98573 8.3062 8.59108 8.71532C7.87235 9.46142 7.43676 10.3793 7.27908 11.4704C7.20241 12.0001 7.18011 12.1082 7.17558 14.8138C7.17384 15.7157 7.17558 16.9026 7.17558 18.4947C7.17558 23.2201 7.18081 24.6019 7.20346 24.8702C7.28186 25.8146 7.42997 26.4088 7.74359 27.0587C8.34297 28.3028 9.48771 29.2367 10.8363 29.5852C11.3033 29.7054 11.819 29.7716 12.4811 29.803C12.7616 29.8152 15.6209 29.8239 18.4818 29.8239C21.3428 29.8239 24.2038 29.8204 24.4773 29.8065C25.244 29.7704 25.6891 29.7107 26.1814 29.5835C27.5387 29.2332 28.6625 28.3132 29.2741 27.0517C29.5816 26.4175 29.7375 25.8007 29.8081 24.9056C29.8234 24.7104 29.8299 21.599 29.8299 18.4917C29.8299 15.3839 29.8229 12.2782 29.8076 12.0831C29.7362 11.1735 29.5802 10.5619 29.2628 9.9155C29.0023 9.38632 28.713 8.99114 28.2931 8.58707C27.5437 7.87129 26.6272 7.43568 25.5351 7.27816C25.006 7.20167 24.9005 7.17902 22.1929 7.17432H18.506Z" fill="url(#paint0_radial_223_3830)"/>
<path d="M18.506 7.17432C13.7769 7.17432 12.3938 7.1792 12.125 7.2015C11.1545 7.28217 10.5506 7.43498 9.89263 7.76256C9.3856 8.01434 8.98573 8.3062 8.59108 8.71532C7.87235 9.46142 7.43676 10.3793 7.27908 11.4704C7.20241 12.0001 7.18011 12.1082 7.17558 14.8138C7.17384 15.7157 7.17558 16.9026 7.17558 18.4947C7.17558 23.2201 7.18081 24.6019 7.20346 24.8702C7.28186 25.8146 7.42997 26.4088 7.74359 27.0587C8.34297 28.3028 9.48771 29.2367 10.8363 29.5852C11.3033 29.7054 11.819 29.7716 12.4811 29.803C12.7616 29.8152 15.6209 29.8239 18.4818 29.8239C21.3428 29.8239 24.2038 29.8204 24.4773 29.8065C25.244 29.7704 25.6891 29.7107 26.1814 29.5835C27.5387 29.2332 28.6625 28.3132 29.2741 27.0517C29.5816 26.4175 29.7375 25.8007 29.8081 24.9056C29.8234 24.7104 29.8299 21.599 29.8299 18.4917C29.8299 15.3839 29.8229 12.2782 29.8076 12.0831C29.7362 11.1735 29.5802 10.5619 29.2628 9.9155C29.0023 9.38632 28.713 8.99114 28.2931 8.58707C27.5437 7.87129 26.6272 7.43568 25.5351 7.27816C25.006 7.20167 24.9005 7.17902 22.1929 7.17432H18.506Z" fill="url(#paint1_radial_223_3830)"/>
<path d="M18.5008 10.1365C16.2294 10.1365 15.9444 10.1464 15.0523 10.187C14.1619 10.2278 13.5542 10.3687 13.0224 10.5756C12.4724 10.7892 12.0058 11.0749 11.5409 11.54C11.0757 12.0049 10.7899 12.4715 10.5756 13.0214C10.3683 13.5534 10.2271 14.1613 10.1871 15.0513C10.1472 15.9435 10.1367 16.2287 10.1367 18.5001C10.1367 20.7715 10.1468 21.0557 10.1872 21.9478C10.2282 22.8382 10.3692 23.446 10.5758 23.9778C10.7896 24.5279 11.0753 24.9945 11.5404 25.4594C12.0051 25.9246 12.4717 26.211 13.0214 26.4247C13.5535 26.6315 14.1614 26.7724 15.0516 26.8132C15.9437 26.8538 16.2286 26.8637 18.4998 26.8637C20.7713 26.8637 21.0555 26.8538 21.9476 26.8132C22.8379 26.7724 23.4463 26.6315 23.9785 26.4247C24.5284 26.211 24.9943 25.9246 25.459 25.4594C25.9242 24.9945 26.2099 24.5279 26.4242 23.9779C26.6298 23.446 26.771 22.8381 26.8128 21.948C26.8529 21.0559 26.8633 20.7715 26.8633 18.5001C26.8633 16.2287 26.8529 15.9436 26.8128 15.0515C26.771 14.1611 26.6298 13.5534 26.4242 13.0216C26.2099 12.4715 25.9242 12.0049 25.459 11.54C24.9937 11.0748 24.5285 10.789 23.9779 10.5756C23.4448 10.3687 22.8367 10.2278 21.9463 10.187C21.0542 10.1464 20.7702 10.1365 18.4982 10.1365H18.5008ZM17.7505 11.6437C17.9732 11.6433 18.2217 11.6437 18.5008 11.6437C20.7338 11.6437 20.9985 11.6517 21.8803 11.6918C22.6957 11.7291 23.1383 11.8653 23.4331 11.9798C23.8234 12.1314 24.1017 12.3126 24.3942 12.6053C24.6869 12.898 24.8681 13.1768 25.0201 13.5671C25.1345 13.8616 25.271 14.3042 25.3081 15.1196C25.3481 16.0013 25.3569 16.2661 25.3569 18.4982C25.3569 20.7302 25.3481 20.9951 25.3081 21.8768C25.2708 22.6922 25.1345 23.1348 25.0201 23.4293C24.8685 23.8196 24.6869 24.0975 24.3942 24.39C24.1015 24.6828 23.8236 24.864 23.4331 25.0156C23.1386 25.1306 22.6957 25.2665 21.8803 25.3038C20.9987 25.3438 20.7338 25.3525 18.5008 25.3525C16.2676 25.3525 16.0029 25.3438 15.1213 25.3038C14.3059 25.2661 13.8633 25.1299 13.5683 25.0154C13.178 24.8638 12.8992 24.6826 12.6065 24.3899C12.3138 24.0971 12.1326 23.819 11.9807 23.4286C11.8662 23.1341 11.7298 22.6915 11.6927 21.8761C11.6526 20.9944 11.6446 20.7295 11.6446 18.4961C11.6446 16.2627 11.6526 15.9992 11.6927 15.1175C11.7299 14.3021 11.8662 13.8595 11.9807 13.5647C12.1323 13.1744 12.3138 12.8956 12.6065 12.6029C12.8992 12.3101 13.178 12.1289 13.5683 11.977C13.8631 11.862 14.3059 11.7261 15.1213 11.6886C15.8928 11.6538 16.1918 11.6433 17.7505 11.6416V11.6437ZM22.9651 13.0324C22.411 13.0324 21.9615 13.4814 21.9615 14.0357C21.9615 14.5898 22.411 15.0393 22.9651 15.0393C23.5192 15.0393 23.9687 14.5898 23.9687 14.0357C23.9687 13.4816 23.5192 13.032 22.9651 13.032V13.0324ZM18.5008 14.205C16.1289 14.205 14.2059 16.1281 14.2059 18.5001C14.2059 20.8721 16.1289 22.7943 18.5008 22.7943C20.8727 22.7943 22.795 20.8721 22.795 18.5001C22.795 16.1281 20.8727 14.205 18.5008 14.205ZM18.5008 15.7122C20.0404 15.7122 21.2886 16.9603 21.2886 18.5001C21.2886 20.0397 20.0404 21.288 18.5008 21.288C16.9611 21.288 15.713 20.0397 15.713 18.5001C15.713 16.9603 16.9611 15.7122 18.5008 15.7122Z" fill="white"/>
</g>
<defs>
<radialGradient id="paint0_radial_223_3830" cx="0" cy="0" r="1" gradientUnits="userSpaceOnUse" gradientTransform="translate(13.1926 31.5684) rotate(-90) scale(22.4474 20.8829)">
<stop stop-color="#FFDD55"/>
<stop offset="0.1" stop-color="#FFDD55"/>
<stop offset="0.5" stop-color="#FF543E"/>
<stop offset="1" stop-color="#C837AB"/>
</radialGradient>
<radialGradient id="paint1_radial_223_3830" cx="0" cy="0" r="1" gradientUnits="userSpaceOnUse" gradientTransform="translate(3.37996 8.80596) rotate(78.678) scale(10.0342 41.3706)">
<stop stop-color="#3771C8"/>
<stop offset="0.128" stop-color="#3771C8"/>
<stop offset="1" stop-color="#6600FF" stop-opacity="0"/>
</radialGradient>
<clipPath id="clip0_223_3830">
<rect width="23" height="23" fill="white" transform="translate(7 7)"/>
</clipPath>
</defs>
</svg>
