<svg width="37" height="37" viewBox="0 0 37 37" fill="none" xmlns="http://www.w3.org/2000/svg">
<rect width="37" height="37" rx="10" fill="white"/>
<g clip-path="url(#clip0_223_3846)">
<path d="M30 26.6343C30 28.4932 28.5008 30 26.6514 30H10.3486C8.49918 30 7 28.4932 7 26.6343V10.3657C7 8.50687 8.49918 7 10.3486 7H26.6514C28.5008 7 30 8.50687 30 10.3657V26.6343Z" fill="#FAAB62"/>
<path d="M29.8819 26.5508C29.8819 28.3905 28.3981 29.8819 26.5677 29.8819H10.4323C8.60193 29.8819 7.11816 28.3905 7.11816 26.5508V10.4493C7.11816 8.60954 8.60199 7.11816 10.4323 7.11816H26.5677C28.3981 7.11816 29.8819 8.6096 29.8819 10.4493V26.5508Z" fill="#F7931E"/>
<path d="M18.4877 10.4375C16.2082 10.4375 14.3604 12.2949 14.3604 14.586C14.3604 16.8772 16.2082 18.7347 18.4877 18.7347C20.7671 18.7347 22.615 16.8772 22.615 14.586C22.615 12.2949 20.7671 10.4375 18.4877 10.4375ZM18.4877 16.301C17.5454 16.301 16.7815 15.5331 16.7815 14.586C16.7815 13.639 17.5454 12.8712 18.4877 12.8712C19.4299 12.8712 20.1938 13.639 20.1938 14.586C20.1938 15.5331 19.4299 16.301 18.4877 16.301Z" fill="white"/>
<path d="M19.944 22.0355C21.5963 21.6971 22.5865 20.9106 22.6389 20.8684C23.1224 20.4787 23.2 19.7688 22.8123 19.2827C22.4246 18.7967 21.7183 18.7187 21.2347 19.1083C21.2245 19.1167 20.1684 19.9309 18.4308 19.9321C16.6932 19.9309 15.6148 19.1167 15.6046 19.1083C15.121 18.7187 14.4148 18.7967 14.0271 19.2827C13.6393 19.7688 13.717 20.4787 14.2005 20.8684C14.2536 20.9112 15.2846 21.7182 16.9832 22.0486L14.6159 24.5354C14.1856 24.9838 14.1986 25.6979 14.6447 26.1303C14.8625 26.3414 15.1432 26.4463 15.4236 26.4463C15.7177 26.4463 16.0114 26.3308 16.2316 26.1013L18.4309 23.7464L20.8523 26.1165C21.291 26.5568 22.0014 26.5561 22.4393 26.1153C22.8772 25.6744 22.8767 24.9602 22.4381 24.5201L19.944 22.0355Z" fill="white"/>
<path d="M18.4307 19.9321C18.4272 19.9321 18.4341 19.9322 18.4307 19.9323C18.4273 19.9322 18.4342 19.9321 18.4307 19.9321Z" fill="white"/>
</g>
<defs>
<clipPath id="clip0_223_3846">
<rect width="23" height="23" fill="white" transform="translate(7 7)"/>
</clipPath>
</defs>
</svg>
