<svg width="37" height="37" viewBox="0 0 37 37" fill="none" xmlns="http://www.w3.org/2000/svg">
<rect width="37" height="37" rx="10" fill="white"/>
<g clip-path="url(#clip0_223_3842)">
<path d="M18.5048 30.0096C24.8587 30.0096 30.0096 24.8587 30.0096 18.5048C30.0096 12.1509 24.8587 7 18.5048 7C12.1509 7 7 12.1509 7 18.5048C7 24.8587 12.1509 30.0096 18.5048 30.0096Z" fill="url(#paint0_linear_223_3842)"/>
<path fill-rule="evenodd" clip-rule="evenodd" d="M12.202 18.3802C15.5548 16.9242 17.7868 15.9567 18.9076 15.4873C22.0975 14.1557 22.768 13.9258 23.1991 13.9163C23.2949 13.9163 23.5057 13.9354 23.6493 14.0504C23.7643 14.1462 23.793 14.2707 23.8122 14.3665C23.8314 14.4623 23.8505 14.6634 23.8314 14.8167C23.6589 16.6368 22.9117 21.0529 22.5286 23.0837C22.3657 23.9458 22.0496 24.2332 21.7431 24.2619C21.0725 24.3194 20.5648 23.8213 19.923 23.3998C18.9076 22.7388 18.3424 22.3269 17.3557 21.6755C16.2158 20.9283 16.9534 20.5164 17.6048 19.8459C17.7772 19.6734 20.7181 16.9912 20.7755 16.7517C20.7851 16.723 20.7851 16.6081 20.7181 16.5506C20.651 16.4931 20.5552 16.5123 20.4786 16.5314C20.3732 16.5506 18.7639 17.6235 15.6314 19.7405C15.1716 20.0566 14.7597 20.2099 14.3861 20.2003C13.9742 20.1907 13.1887 19.9704 12.5948 19.7788C11.8763 19.5489 11.3016 19.4244 11.3495 19.022C11.3782 18.8113 11.6656 18.6006 12.202 18.3802Z" fill="white"/>
</g>
<defs>
<linearGradient id="paint0_linear_223_3842" x1="18.4952" y1="7" x2="18.4952" y2="29.8276" gradientUnits="userSpaceOnUse">
<stop stop-color="#2AABEE"/>
<stop offset="1" stop-color="#229ED9"/>
</linearGradient>
<clipPath id="clip0_223_3842">
<rect width="23" height="23" fill="white" transform="translate(7 7)"/>
</clipPath>
</defs>
</svg>
