<svg width="37" height="37" viewBox="0 0 37 37" fill="none" xmlns="http://www.w3.org/2000/svg">
<rect width="37" height="37" rx="10" fill="white"/>
<g clip-path="url(#clip0_223_3838)">
<path d="M7 18.04C7 12.8357 7 10.2335 8.61677 8.61677C10.2335 7 12.8357 7 18.04 7H18.96C24.1643 7 26.7664 7 28.3832 8.61677C30 10.2335 30 12.8357 30 18.04V18.96C30 24.1643 30 26.7664 28.3832 28.3832C26.7664 30 24.1643 30 18.96 30H18.04C12.8357 30 10.2335 30 8.61677 28.3832C7 26.7664 7 24.1643 7 18.96V18.04Z" fill="#0077FF"/>
<path d="M19.2375 23.5696C13.9954 23.5696 11.0054 19.9759 10.8809 13.9958H13.5067C13.5929 18.385 15.5287 20.2442 17.0621 20.6275V13.9958H19.5347V17.7813C21.0488 17.6183 22.6395 15.8933 23.1761 13.9958H25.6487C25.2366 16.3342 23.5116 18.0592 22.2849 18.7684C23.5116 19.3434 25.4763 20.8479 26.2238 23.5696H23.502C22.9174 21.7488 21.4609 20.34 19.5347 20.1484V23.5696H19.2375Z" fill="white"/>
</g>
<defs>
<clipPath id="clip0_223_3838">
<rect width="23" height="23" fill="white" transform="translate(7 7)"/>
</clipPath>
</defs>
</svg>
