<svg width="37" height="37" viewBox="0 0 37 37" fill="none" xmlns="http://www.w3.org/2000/svg">
<rect width="37" height="37" rx="10" fill="white"/>
<path d="M30.5961 11.8579C30.2948 10.7324 29.4103 9.8479 28.2848 9.54661C26.2469 9 18.0713 9 18.0713 9C18.0713 9 9.89584 9 7.85787 9.54661C6.73238 9.8479 5.8479 10.7324 5.54661 11.8579C5 13.8958 5 18.1504 5 18.1504C5 18.1504 5 22.4049 5.54661 24.4429C5.8479 25.5684 6.73238 26.4529 7.85787 26.7541C9.89584 27.3008 18.0713 27.3008 18.0713 27.3008C18.0713 27.3008 26.2469 27.3008 28.2848 26.7541C29.4103 26.4529 30.2948 25.5684 30.5961 24.4429C31.1427 22.4049 31.1427 18.1504 31.1427 18.1504C31.1427 18.1504 31.1405 13.8958 30.5961 11.8579Z" fill="#FF0000"/>
<path d="M15.4541 22.0717L22.2459 18.1507L15.4541 14.2297V22.0717Z" fill="white"/>
</svg>
