<svg width="23" height="17" viewBox="0 0 23 17" fill="none" xmlns="http://www.w3.org/2000/svg">
<path d="M21.4507 0.166739C21.3561 0.156985 21.2607 0.156985 21.166 0.166739H1.72157C1.59695 0.168659 1.47315 0.187346 1.35352 0.222295L11.3882 10.2154L21.4507 0.166739Z" fill="#FB0F40"/>
<path d="M22.4787 1.13184L12.3676 11.2013C12.1074 11.46 11.7554 11.6052 11.3885 11.6052C11.0215 11.6052 10.6695 11.46 10.4093 11.2013L0.388455 1.20822C0.357649 1.32145 0.341315 1.43812 0.339844 1.55545V15.4443C0.339844 15.8127 0.486173 16.166 0.74664 16.4264C1.00711 16.6869 1.36038 16.8332 1.72873 16.8332H21.1732C21.5415 16.8332 21.8948 16.6869 22.1553 16.4264C22.4157 16.166 22.5621 15.8127 22.5621 15.4443V1.55545C22.5565 1.41076 22.5284 1.26783 22.4787 1.13184ZM2.68012 15.4443H1.71484V14.4513L6.76345 9.44434L7.74262 10.4235L2.68012 15.4443ZM21.1593 15.4443H20.1871L15.1246 10.4235L16.1037 9.44434L21.1523 14.4513L21.1593 15.4443Z" fill="#FB0F40"/>
</svg>
